<?xml version="1.0" encoding="utf-8"?>
<!-- Generator: Adobe Illustrator 24.2.3, SVG Export Plug-In . SVG Version: 6.00 Build 0)  -->
<svg version="1.1" id="Layer_1" xmlns="http://www.w3.org/2000/svg" xmlns:xlink="http://www.w3.org/1999/xlink" x="0px" y="0px"
	 viewBox="0 0 2000 2000" style="enable-background:new 0 0 2000 2000;" xml:space="preserve">
<style type="text/css">
	.st0{fill:#FEFFF8;}
</style>
<path d="M1041.9,1591.1c-24.5,1.8-49.1-0.3-73.2-7.3c-19.4-5.6-38-13.1-54.8-24.6c-16.4-11.2-28.8-25.4-35.8-44.3
	c-4.5-12-9.6-23.7-14.4-35.6c-0.5-1.2-1.1-2.3-1.8-3.7c-1.8,0.5-3.4,0.9-4.9,1.4c-10,3.2-20,4.1-30.4,2.1
	c-8.8-1.7-17.7-2.9-26.6-4.3c-11.8-1.8-23.7-3.4-35.5-5.3c-15.2-2.4-30.5-5.1-45.7-7.6c-15.1-2.5-30.2-4.8-45.3-7.4
	c-18.5-3.1-37-6.4-55.5-9.6c-16.2-2.8-32.4-5.5-48.6-8.4c-7.6-1.4-7.8-1.4-11.5,5.1c-0.1,0.1-0.1,0.3-0.2,0.5
	c-9.6,16.6-21.2,31.5-36.2,43.6c-7.8,6.2-16.3,11.6-24.4,17.4c-3.4,2.5-7.1,4.1-11.3,5.1c-7.1,1.6-14.1,3.7-21.3,5.3
	c-12.2,2.8-24.5,4.4-37,5.2c-12,0.7-23.7-1-35.3-4.6c-20.4-6.4-38.4-16.7-53.9-31.3c-23.5-22.1-40-48.8-49.6-79.5
	c-2-6.3-3.7-12.7-5.7-19.3c-1.3,0-2.6,0-3.9,0c-5-0.2-10,0-14.9-0.6c-8.7-1.2-17.4-2.6-26-4.4c-8.4-1.7-17-3.3-25.1-6.1
	c-31.2-10.7-49.4-37.4-49.2-68.9c0.2-28,0.2-56,0.2-84c0-37-0.1-74-0.1-111c0-80.7-0.1-161.3-0.1-242c0-1.3,0-2.7,0-4
	c-0.2-4.9-1-6-5.6-7.6c-0.6-0.2-1.3-0.3-1.9-0.5c-19.3-5.6-38.6-11.2-57.8-16.9c-5.2-1.5-10.6-3-15.6-5.2
	c-14.1-6.3-18.4-19.6-15.5-33.2c1.5-7.3,6.6-12.2,13-15.7c8.7-4.8,17.5-9.6,26.3-14.2c64.5-34.1,129-68.2,193.6-102.3
	c45.3-23.9,90.6-47.8,135.8-71.7c6-3.2,12.3-5,19.1-4.7c4.9,0.2,9.4,1.6,13.9,3.6c13.6,6.1,27.3,12.1,41,18.3c2.6,1.2,4.6,1.1,7-0.2
	c4.8-2.7,9.7-5.1,14.6-7.5c59.9-30.4,119.8-60.8,179.6-91.2c46.7-23.7,93.4-47.4,140.1-71c23.4-11.8,46.9-23.3,70.4-35c4,0,8,0,12,0
	c0.4,0.3,0.7,0.7,1.2,0.8c10.1,1.7,20.3,3.4,30.5,5.1c21.3,3.5,42.6,6.8,63.9,10.4c24.7,4.1,49.4,8.5,74.2,12.6
	c21.3,3.5,42.7,6.7,64,10.1c22.8,3.7,45.6,7.5,68.3,11.2c24.4,4,48.8,8,73.3,12c22.1,3.6,44.3,7.2,66.4,10.7
	c17.4,2.8,34.8,5.5,52.2,8.3c22.3,3.6,44.6,7.2,66.9,11c21.6,3.6,43.2,7.3,64.8,11c6.3,1.1,12.3,2.8,17.4,6.9
	c5.9,4.8,9.2,11.2,11.6,18.3c18.1,52.8,36.1,105.6,54.2,158.3c13.6,39.6,27.2,79.1,40.8,118.7c7.7,22.5,15.4,44.9,23,67.4
	c1.4,4.3,3.9,7.6,7.4,10.3c26.6,20.5,53.2,41.1,79.9,61.7c21.9,16.9,43.8,33.8,65.6,50.7c7,5.4,10.5,12.7,10.6,21.6c0,6,0,12,0,18
	c0,70.8,0,141.6,0,212.5c0,7.3,0,14.7,0.1,22c0,1.7,0.3,3.5,0.5,5.3c6.2,0.8,11.8,1.5,17.4,2.2c5.8,0.8,11.4,2.3,16.5,5.4
	c11.4,6.8,19.4,16.6,24.8,28.5c2.2,4.9,3.9,9.9,3.9,15.4c0.1,20,0.2,40,0.2,60c0,3.8,0.2,7.7-0.5,11.5c-3.3,17.9-12.5,32-27.9,41.9
	c-7.8,5-16.7,6.3-25.7,7.2c-7.4,0.8-14.9,1.5-22.3,2.4c-7.9,0.9-15.8,1.8-23.8,2.6c-8.4,0.8-16.9,1.4-25.4,2c-2.5,0.2-4.5,1.2-6,3
	c-1.1,1.3-2,2.6-2.9,4.1c-21.7,36.1-51.9,63-89.7,81.4c-22.2,10.8-45.5,17.7-70.3,18.5c-23.3,0.7-46.6-0.1-69.5-4.8
	c-16-3.3-31.5-8.1-46.1-15.7c-1.2-0.6-2.3-1.3-3.4-2c-2-1.5-3.7-3.3-5.8-4.6c-16.9-10.5-32.5-22.7-46.1-37.3
	c-3.2-3.4-6.3-6.9-9.3-10.5c-2.5-2.9-5.4-4.3-9.2-3.8c-2.1,0.3-4.3,0.5-6.4,0.6c-13.8,1-27.5,2-41.3,3c-14.6,1.1-29.2,2.1-43.8,3.2
	c-5.1,0.4-10.3,0.8-15.4,1.3c-10.4,0.9-20.9,1.8-31.3,2.6c-10.8,0.8-21.6,1.3-32.3,2.4c-18.8,1.9-37.6,0.5-56.3-0.9
	c-3.9-0.3-7.9-0.8-11.8-0.1c-0.4,0.8-0.7,1.4-1,1.9c-11.8,24.1-30.1,41.5-54.1,53.3c-18.8,9.2-38.2,17.2-58.2,23.2
	C1079.2,1586.2,1060.6,1589.8,1041.9,1591.1z M192.8,865c-2.1,2.3-1.8,4.7-1.8,7c-0.1,71-0.2,142-0.3,213c0,29.3,0.1,58.6,0.2,88
	c0.2,44.5,0.5,89,0.7,133.4c0.1,15.7,7.2,27.3,20.3,35.5c7.7,4.8,16.3,7.5,25.1,9.1c8.3,1.5,16.7,2.6,25.1,4
	c3.7,0.6,7.4,1.4,11.8,2.1c0.3-3.8,1-7.4,0.9-11c-0.3-15.2,1-30.2,4-45.1c3.6-17.6,8.6-34.8,16.5-51c10.5-21.5,25.2-39.5,45.6-52.5
	c16.1-10.3,33.6-14.7,52.8-11.6c16.6,2.7,30.9,9.8,43.1,21.4c15,14.2,25.6,31.4,34,50c11,24.3,16.3,50.1,19,76.5
	c1.3,12.9,1.9,25.8,3.1,38.7c0.3,3.6,1.2,7.3,2.6,10.5c4.2,9.9,12.6,14.8,22.7,16.7c13.5,2.6,27.1,4.8,40.7,7.1
	c12.8,2.2,25.5,4.2,38.3,6.4c13.9,2.4,27.7,5.1,41.6,7.6c14,2.6,28.1,5.2,42.1,7.7c12.1,2.2,24.2,4.3,36.3,6.4
	c10.6,1.9,21.2,3.8,31.8,5.6c12.6,2.2,25.2,4.3,37.8,6.3c11.6,1.9,23.2,3.9,34.9,5.7c6.4,1,12.8,1.8,19.3,0.4c7.9-1.8,11-5,10.8-13
	c-0.1-7.8-0.6-15.6-1-23.4c-0.8-20.5,1.2-40.8,4.8-61c5-27.5,13.6-53.7,26.5-78.4c12.5-24.1,29-45,50.7-61.6
	c24.2-18.5,51.1-28.1,81.8-24.5c14.8,1.7,28.9,6.1,42,13.3c19.3,10.6,34.8,25.5,48.2,42.7c11.5,14.8,20.5,31,27.8,48.3
	c2.3,5.5,4.7,10.9,7.2,16.7c0.8-0.7,1.4-1.1,1.8-1.6c6.7-7.9,15.6-10.6,25.4-10.3c7.6,0.3,15.2,1.5,22.8,2.4
	c6.4,0.8,12.8,1.7,19.3,2.4c6.9,0.8,13.9,1.4,20.8,2.3c10.7,1.4,21.4,2.9,32.3,2.7c6.3-0.1,12.6-0.5,18.9-0.7
	c9.8-0.3,19.6-0.6,29.4-1c16.3-0.6,32.6-1.3,48.8-2c15-0.6,29.9-1.4,44.9-2c10.5-0.4,20.9-0.7,31.4-1.2c11-0.5,21.9-1.3,32.9-1.8
	c15.6-0.7,31.2-1.4,46.8-2c9.6-0.4,19.3-0.7,28.9-1c9.5-0.3,18.9-0.6,28.4-1c8-0.3,16-0.6,23.9-1c14.3-0.7,28.6-1.5,42.8-2.2
	c12-0.6,23.9-1.2,35.9-1.8c14.1-0.7,28.2-1.4,42.3-2c17.1-0.7,34.2-1.3,51.3-2c8.8-0.3,17.6-0.7,26.4-1c9.5-0.3,19-0.6,28.4-1
	c5.9-0.3,11.9,0,17.6-1.8c0.7-9.4,0.4-33.8-0.5-37.7c-1.6,0-3.2,0-4.9,0c-18.8,0.3-37.6,0.7-56.4,1c-12,0.2-24,0.2-36,0.3
	c-3.5,0-7,0.2-10.5,0c-8.5-0.6-11.9-4.4-12.6-11.4c-0.3-3.6-0.8-7.3-0.8-10.9c-0.1-53.5,0-107,0-160.5c0-3,0.1-6,0.4-9
	c1.2-9.8,6.6-11.2,13.2-12.2c1-0.1,2-0.1,3,0c7.6,0.3,15.3,0.6,22.9,0.8c16,0.4,31.9,0.7,47.9,1c10,0.2,20,0.1,30,0.2
	c1.5,0,2.9-0.1,4.4-0.2c1-6.7,1.9-13.1-0.6-19.5c-6.4-0.4-12.7-0.9-18.9-1.1c-11.8-0.4-23.6-0.7-35.4-1c-15.3-0.4-30.6-0.7-45.9-1
	c-17.1-0.4-34.3-0.7-51.4-1c-19-0.3-37.9-0.7-56.9-1c-20.6-0.3-41.3-0.7-61.9-1c-22.1-0.3-44.3-0.7-66.4-1
	c-24.8-0.4-49.6-0.7-74.4-1c-28.6-0.4-57.3-0.8-85.9-1c-36.3-0.2-72.7-0.1-109-0.2c-1.4,0-2.9,0.2-4.7,0.3c-0.1,2.8-0.2,5.2-0.3,7.7
	c-0.4,9-0.8,17.9-1.3,26.9c-0.5,10.1-1.2,20.2-1.7,30.4c-0.4,8-0.8,15.9-1.3,23.9c-0.5,8.6-1.2,17.2-1.7,25.9
	c-0.5,9-0.8,17.9-1.3,26.9c-0.3,6.5-0.7,13-1,19.4c-0.6,10-1.2,19.9-1.7,29.9c-0.1,2.3-0.2,4.5-0.3,6.8c-0.7-4-1.3-7.9-1.5-11.9
	c-0.7-14.4-1.3-28.9-1.9-43.4c-0.4-9.1-0.7-18.3-1-27.4c-0.4-10.3-0.7-20.6-1-30.9c-0.3-9.6-0.6-19.3-1-28.9
	c-0.7-19.4-1.5-38.9-2.2-58.3c-0.1-3.1-1.2-5.5-3.3-7.5c-1.3-1.2-3-2.1-4.6-3c-37.5-22.5-75.1-44.9-112.6-67.3
	c-9.7-5.8-19.4-11.6-29.1-17.5c-3.9-2.3-7.7-3.1-12.3-2c-16.8,3.9-33.7,7.5-50.6,11c-26.8,5.5-53.7,10.7-80.4,16.4
	c-33.4,7-66.8,14.4-100.2,21.6c-2.9,0.6-5.8,1-8.7,1.5c1-1.3,2.1-1.9,3.3-2.3c26.4-10.4,53.6-18.6,81.1-25.8
	c44.6-11.7,89.3-22.9,134-34.3c5.8-1.5,11.5-3,17.5-4.5c-0.2-1.6-0.3-2.9-0.6-4.1c-3.6-14.3-7.2-28.6-10.9-42.9
	c-11.5-45-23.1-89.9-34.6-134.9c-9.5-37.3-18.9-74.6-28.4-111.8c-11.2-43.9-22.5-87.7-33.7-131.6c-2.7-10.6-5.2-21.3-8.1-31.8
	c-2-7.4-3.8-6.9-8.9-4.2c-25,12.8-50.1,25.5-75.1,38.2c-30.8,15.7-61.6,31.3-92.4,47c-31.1,15.8-62.2,31.6-93.3,47.4
	c-34.4,17.5-68.8,34.9-103.2,52.3c-3.2,1.6-6.4,3.4-10.2,5.3c1.6,0.8,2.6,1.3,3.6,1.8c7.2,3.1,14.3,6.1,21.5,9.3
	c18,8.1,36,16.2,54,24.3c17.1,7.7,34.3,15.3,51.3,23.2c3.9,1.8,7.6,4,11.2,6.5c4.7,3.3,7.5,8.1,8.5,13.6c0.7,3.6,1,7.3,1,10.9
	c0.1,93.5,0,187,0,280.5c0,1.2,0,2.3,0,3.5c-1.1,14.7-7.1,25-23,28.3c-8,1.6-15.9,3.3-23.9,4.8c-18.8,3.5-37.5,6.8-56.3,10.3
	c-18.6,3.5-37.1,7.1-55.7,10.6c-16.8,3.2-33.6,6.2-50.4,9.4c-18.3,3.5-36.5,7.1-54.7,10.6c-16.8,3.2-33.6,6.2-50.4,9.3
	c-17,3.2-33.9,6.5-50.8,9.7c-17.3,3.2-34.6,6.4-51.9,9.5c-9.2,1.6-18.4,3-27.7,2.3c-6.5-0.5-12.9-1.2-19.4-1.9
	c-4.6-0.5-9.3-0.8-13.8-1.9c-11.6-2.6-20.5-13.4-21-24.4c-0.6-12.9,6.8-24.2,19.2-27.5c4.8-1.3,9.6-2.7,14.3-4.1
	c1.2-0.4,2.3-1,3.4-1.4c0.9-33.4,0.5-164.7-0.6-169.2C220.5,873.2,206.7,869.1,192.8,865z M1815.7,1007c0.1-0.3,0.3-0.7,0.4-1
	c-1.3-1.4-2.5-2.9-4-4.1c-4-3.2-8.2-6.3-12.3-9.5c-30-23.3-60-46.5-90-69.8c-5.5-4.2-11.5-7.3-18.5-7.9c-1.6-0.1-3.2-0.7-4.6-1
	c-1.9-7.3-3.3-14.5-5.6-21.4c-9.3-27.9-18.7-55.7-28.2-83.5c-12.8-37.4-25.6-74.7-38.5-112c-16.1-47.1-32.3-94.2-48.4-141.3
	c-1.2-3.6-2.5-7.2-3.7-10.8c-1.3-3.8-4.1-6-8-6.7c-8.3-1.4-16.7-2.7-25.1-4.1c-11-1.8-21.9-3.7-32.9-5.6c-11-1.8-21.9-3.6-32.9-5.4
	c-9-1.5-18-2.9-27-4.3c-11.3-1.8-22.6-3.8-33.9-5.6c-11.3-1.8-22.6-3.5-33.9-5.3c-13.4-2.2-26.8-4.5-40.3-6.7
	c-11.3-1.9-22.6-3.9-33.9-5.7c-9-1.5-18-2.9-27-4.3c-9-1.4-18-2.9-27-4.3c-11.5-1.9-22.9-3.8-34.4-5.6c-11.3-1.8-22.6-3.6-33.9-5.5
	c-11.1-1.8-22.3-3.7-33.4-5.5c-11.3-1.9-22.6-3.7-33.9-5.6c-11-1.8-21.9-3.6-32.9-5.4c-11.3-1.8-22.6-3.5-33.9-5.3
	c-13.3-2.2-26.5-4.5-39.8-6.7c-13.3-2.2-26.5-4.5-39.8-6.7c-2.1-0.3-4.2-1-6.2-0.1c7.8,32.6,15.5,65.1,23.2,97.5
	c6.5,27.6,13,55.2,19.5,82.8c6.8,28.7,13.6,57.4,20.5,86.1c6.5,27.1,13,54.2,19.5,81.3c8.2,34.4,16.4,68.7,24.3,103.1
	c1.5,6.7,5,11.2,10.9,14.6c25.9,15,51.7,30.2,77.5,45.5c23.3,13.8,46.6,27.8,70,41.5c3.2,1.9,6.9,3.3,10.6,4.2
	c3.8,0.9,7.9,0.9,11.9,1c16.1,0.4,32.3,0.7,48.4,1c15.3,0.3,30.6,0.7,45.9,1c17.5,0.4,35,0.7,52.4,1c20.3,0.4,40.6,0.7,60.9,1
	c23.3,0.4,46.6,0.7,69.9,1c24.6,0.3,49.3,0.7,73.9,1c25.1,0.3,50.3,0.7,75.4,1c22.5,0.3,44.9,0.6,67.4,1c22.3,0.4,44.6,0.8,66.9,1.1
	C1806.2,1007,1810.9,1007,1815.7,1007z M1141,1399.2c-0.1,0-0.2,0-0.2,0c0,13.5-0.1,27,0,40.5c0,3,0.3,6,1,8.9
	c2.7,10.6,13.2,20.3,28.3,21.5c5.1,0.4,10.3,0.9,15.4,1.4c8.8,0.8,17.5,1.7,26.3,2.6c8.6,0.8,17.3,1.3,25.8,2.3
	c9.3,1.2,18.6,0.8,27.9,0.4c6.6-0.2,13.2-1.2,19.9-1.7c10.1-0.8,20.2-1.4,30.3-2.2c4.5-0.3,8.9-0.8,13.4-1.2
	c6.3-0.6,12.6-1.2,18.9-1.7c5.8-0.5,11.6-0.7,17.4-1.2c10.1-0.9,20.2-1.9,30.3-2.7c10.4-0.8,20.9-1.5,31.3-2.2
	c4.8-0.3,9.6-0.7,14.4-1.1c7-0.6,13.9-1.2,20.9-1.7c6.1-0.5,12.3-0.7,18.4-1.2c10.8-0.9,21.5-1.9,32.3-2.7
	c10.6-0.8,21.2-1.5,31.8-2.2c4.8-0.3,9.6-0.8,14.4-1.2c6.1-0.5,12.2-1.1,18.4-1.6c6.1-0.5,12.3-0.8,18.4-1.2
	c4.6-0.3,9.3-0.7,13.9-1.1c6.3-0.5,12.6-1.2,18.9-1.7c6.5-0.5,12.9-0.7,19.4-1.2c10.8-0.9,21.5-1.9,32.3-2.8
	c10.6-0.8,21.2-1.5,31.8-2.2c4.8-0.3,9.6-0.7,14.4-1.1c6.5-0.6,12.9-1.2,19.4-1.7c5.8-0.5,11.6-0.7,17.4-1.2
	c10.1-0.9,20.2-1.9,30.3-2.7c9.9-0.8,19.9-1.4,29.8-2.2c12.4-1,24.8-2,37.3-3c4.5-0.4,9-0.5,13.4-1c2.6-0.3,5.3-0.7,7.8-1.5
	c14.2-4.1,24.4-16.9,24.7-32.7c0.3-16.3,0.1-32.7,0-49c0-3.6-0.3-7.4-1.1-10.9c-1.7-7.3-5.3-13.6-11.5-18.1
	c-5-3.6-10.6-5.8-16.7-5.7c-11.6,0.3-23.2,1.1-34.9,1.6c-9.8,0.4-19.6,0.7-29.4,1.1c-15.1,0.6-30.2,1.3-45.4,2
	c-15.3,0.7-30.6,1.3-45.8,2c-15.4,0.7-30.9,1.3-46.3,2c-15.6,0.7-31.2,1.3-46.9,2c-15.8,0.7-31.6,1.3-47.3,2
	c-15.6,0.7-31.2,1.3-46.8,2c-15.1,0.7-30.2,1.3-45.4,2c-14.9,0.7-29.9,1.4-44.8,2c-16.4,0.7-32.9,1.3-49.4,2
	c-8.6,0.3-17.3,0.7-25.9,1c-13.1,0.4-26.3,0.8-39.4,1.3c-11,0.4-21.9,0.7-32.9,1.1c-0.8,0-1.7,0.2-2.5,0.3
	c-6.8,0.5-13.6,1.5-20.4,1.5c-8.8,0.1-17.6-0.3-26.4-0.9c-8.9-0.6-17.9-1.6-26.8-2.6c-5.9-0.7-11.9-1.5-17.8-2.3
	c-8.9-1.1-17.9-1.8-26.7-3.5c-19.8-3.9-35,14.2-35.4,28.2C1140.7,1370.2,1141,1384.7,1141,1399.2z M94.1,807.5
	c7.2,2.3,13.3,4.3,19.5,6.1c46.5,13.6,93,27.2,139.4,40.9c6.4,1.9,12.3,1.7,18.5-0.5c29.3-10.3,58.6-20.4,87.9-30.7
	c34.4-12.1,68.8-24.5,103.2-36.4c30-10.4,60.1-20.2,90.1-30.5c35.8-12.4,71.4-25,107.1-37.6c3.1-1.1,6.1-2.7,9.8-4.3
	c-1.9-1-3-1.7-4.2-2.3c-22.2-9.8-44.3-19.6-66.5-29.4c-16.4-7.3-32.7-14.7-49.1-22c-29.4-13.2-58.8-26.4-88.1-39.7
	c-5.5-2.5-10.4-2.4-15.7,0.6c-7.1,4-14.3,7.8-21.5,11.6c-46.2,24.3-92.4,48.6-138.6,72.9c-35.3,18.6-70.5,37.2-105.8,55.9
	c-26.6,14-53.2,28.1-79.8,42.1C98.5,804.9,96.8,805.9,94.1,807.5z M1063.1,1390.9c0.2-9.2-0.9-21.3-3.1-33.2
	c-3-16.4-7.4-32.3-14.3-47.5c-5.6-12.5-13.9-23.1-25.2-31c-13-9.1-29.6-8.6-42.3,1.1c-10.3,7.8-17.9,17.8-23.4,29.4
	c-11.4,23.9-16.6,49.3-17.7,75.5c-0.3,6.9,0.6,13.9,0.8,20.9c0.4,14.3,2.6,28.4,6.1,42.3c3.7,14.6,9.2,28.4,17.6,41
	c6.7,10,15,18.3,26.3,22.9c5.8,2.4,11.7,3.3,18,2c5.3-1.2,10.1-3.4,14.5-6.3c11.9-7.9,20.1-18.8,25.7-31.8
	C1057.3,1449.8,1063.3,1422.5,1063.1,1390.9z M429.4,1343.2c-0.4-5.1-0.9-10.3-1.2-15.4c-0.9-13-4.1-25.5-8.2-37.8
	c-3.5-10.6-8.6-20.2-17.2-27.6c-8-6.9-17.1-10.2-27.7-7.3c-7.1,1.9-12.2,6.6-16.5,12.3c-7.7,10.2-13,21.6-16.5,33.9
	c-5.2,18.5-5.8,37.3-4.4,56.4c0.9,12.7,4,24.9,8.3,36.8c3.9,11,9.9,20.6,18.5,28.7c10.1,9.5,26,10,36.2,0.4
	c6.1-5.8,11.3-12.2,14.9-19.9C424.5,1384.4,429.3,1364.4,429.4,1343.2z M661,1006c0.2-3.4-1.9-2.9-3.5-2.9
	c-8.3-0.5-16.6-0.8-24.9-1.3c-8.5-0.5-16.9-1.2-25.4-1.7c-9.8-0.5-19.6-0.8-29.4-1.2c-1.5-0.1-3-0.2-4.5-0.4
	c-7.7-1-15.3-0.7-22.8,0.8c-12,2.4-24,5.2-35.9,8.1c-21.9,5.2-43.8,10.6-65.8,15.9c-37.7,9.1-75.4,18.4-113.1,27.4
	c-22.4,5.4-45,10.3-67.4,15.6c-12.7,3-25.3,6.5-39,10.1c1.8,0.9,2.5,1.3,3.2,1.5c7.5,1.8,15.1,2.2,22.7,2.8
	c8.2,0.7,16.2-1.2,24.2-2.7c15-2.9,30-5.6,45-8.5c15.2-2.9,30.3-5.7,45.5-8.6c13.2-2.5,26.4-4.9,39.6-7.4
	c17.1-3.2,34.2-6.4,51.3-9.6c13.4-2.5,26.7-5,40.1-7.5c15-2.8,30-5.6,45-8.5c16.5-3.1,32.9-6.2,49.4-9.3c16.9-3.2,33.9-6.5,50.8-9.7
	C651,1008,655.9,1007,661,1006z M1823.1,1219.6c1-4.5,1-145.3,0-149.9c-22.6-0.8-45.2-1.7-68.2-2.5c-0.3,2.5-0.7,4.6-0.7,6.7
	c-0.2,10.5-0.4,21-0.4,31.5c0,27,0.1,53.9,0.3,80.9c0.1,11.3,0.6,22.6,1,33.9c0,0.5,0.3,0.9,0.7,1.7
	C1778.2,1221.1,1800.7,1220.4,1823.1,1219.6z"/>
<path class="st0" d="M192.8,865c13.9,4.1,27.7,8.2,41.5,12.2c1.1,4.5,1.5,135.8,0.6,169.2c-1,0.4-2.2,1.1-3.4,1.4
	c-4.8,1.4-9.5,2.8-14.3,4.1c-12.4,3.4-19.8,14.7-19.2,27.5c0.5,11,9.4,21.8,21,24.4c4.5,1,9.2,1.4,13.8,1.9
	c6.4,0.7,12.9,1.4,19.4,1.9c9.4,0.8,18.6-0.6,27.7-2.3c17.3-3.1,34.6-6.3,51.9-9.5c17-3.2,33.9-6.5,50.8-9.7
	c16.8-3.2,33.6-6.2,50.4-9.3c18.3-3.5,36.5-7.1,54.7-10.6c16.8-3.2,33.6-6.3,50.4-9.4c18.6-3.5,37.1-7.2,55.7-10.6
	c18.7-3.5,37.5-6.9,56.3-10.3c8-1.5,15.9-3.1,23.9-4.8c16-3.3,21.9-13.6,23-28.3c0.1-1.2,0-2.3,0-3.5c0-93.5,0-187,0-280.5
	c0-3.6-0.4-7.3-1-10.9c-1-5.6-3.8-10.4-8.5-13.6c-3.5-2.5-7.3-4.7-11.2-6.5c-17.1-7.8-34.2-15.5-51.3-23.2c-18-8.1-36-16.3-54-24.3
	c-7.1-3.2-14.3-6.2-21.5-9.3c-1-0.4-2-1-3.6-1.8c3.8-2,6.9-3.7,10.2-5.3c34.4-17.5,68.8-34.9,103.2-52.3
	c31.1-15.8,62.2-31.6,93.3-47.4c30.8-15.7,61.6-31.3,92.4-47c25-12.7,50.1-25.4,75.1-38.2c5.1-2.6,6.9-3.2,8.9,4.2
	c2.9,10.6,5.4,21.2,8.1,31.8c11.2,43.9,22.5,87.7,33.7,131.6c9.5,37.3,18.9,74.6,28.4,111.8c11.5,45,23.1,89.9,34.6,134.9
	c3.7,14.3,7.3,28.6,10.9,42.9c0.3,1.2,0.4,2.6,0.6,4.1c-6,1.6-11.7,3.1-17.5,4.5c-44.7,11.4-89.4,22.6-134,34.3
	c-27.5,7.2-54.6,15.4-81.1,25.8c-1.2,0.5-2.4,1-3.3,2.3c2.9-0.5,5.8-0.8,8.7-1.5c33.4-7.2,66.7-14.5,100.2-21.6
	c26.8-5.6,53.6-10.8,80.4-16.4c16.9-3.5,33.7-7.1,50.6-11c4.6-1.1,8.5-0.4,12.3,2c9.7,5.9,19.4,11.7,29.1,17.5
	c37.5,22.4,75.1,44.9,112.6,67.3c1.6,0.9,3.2,1.8,4.6,3c2.2,2,3.2,4.4,3.3,7.5c0.7,19.4,1.5,38.9,2.2,58.3c0.4,9.6,0.7,19.3,1,28.9
	c0.3,10.3,0.7,20.6,1,30.9c0.3,9.1,0.6,18.3,1,27.4c0.6,14.5,1.2,28.9,1.9,43.4c0.2,4,0.8,7.9,1.5,11.9c0.1-2.3,0.2-4.5,0.3-6.8
	c0.6-10,1.2-19.9,1.7-29.9c0.4-6.5,0.7-12.9,1-19.4c0.4-9,0.8-17.9,1.3-26.9c0.5-8.6,1.2-17.2,1.7-25.9c0.5-8,0.8-15.9,1.3-23.9
	c0.6-10.1,1.2-20.2,1.7-30.4c0.5-9,0.9-17.9,1.3-26.9c0.1-2.5,0.2-4.9,0.3-7.7c1.8-0.1,3.3-0.3,4.7-0.3c36.3,0,72.7,0,109,0.2
	c28.6,0.2,57.3,0.6,85.9,1c24.8,0.3,49.6,0.6,74.4,1c22.1,0.3,44.3,0.7,66.4,1c20.6,0.3,41.3,0.7,61.9,1c19,0.3,37.9,0.7,56.9,1
	c17.1,0.3,34.3,0.6,51.4,1c15.3,0.3,30.6,0.6,45.9,1c11.8,0.3,23.6,0.6,35.4,1c6.3,0.2,12.6,0.7,18.9,1.1c2.5,6.4,1.6,12.8,0.6,19.5
	c-1.5,0.1-3,0.2-4.4,0.2c-10,0-20,0-30-0.2c-16-0.3-32-0.6-47.9-1c-7.6-0.2-15.3-0.5-22.9-0.8c-1,0-2-0.1-3,0
	c-6.7,1-12,2.4-13.2,12.2c-0.4,3-0.4,6-0.4,9c0,53.5,0,107,0,160.5c0,3.6,0.5,7.3,0.8,10.9c0.7,7,4.1,10.8,12.6,11.4
	c3.5,0.2,7,0.1,10.5,0c12-0.1,24-0.1,36-0.3c18.8-0.3,37.6-0.7,56.4-1c1.6,0,3.3,0,4.9,0c0.9,3.9,1.2,28.3,0.5,37.7
	c-5.7,1.8-11.7,1.6-17.6,1.8c-9.5,0.4-19,0.7-28.4,1c-8.8,0.3-17.6,0.7-26.4,1c-17.1,0.7-34.2,1.3-51.3,2c-14.1,0.6-28.2,1.3-42.3,2
	c-12,0.6-23.9,1.2-35.9,1.8c-14.3,0.7-28.6,1.5-42.8,2.2c-8,0.4-16,0.7-23.9,1c-9.5,0.4-18.9,0.7-28.4,1c-9.6,0.3-19.3,0.6-28.9,1
	c-15.6,0.6-31.2,1.2-46.8,2c-11,0.5-21.9,1.3-32.9,1.8c-10.5,0.5-20.9,0.8-31.4,1.2c-15,0.6-29.9,1.3-44.9,2
	c-16.3,0.7-32.6,1.4-48.8,2c-9.8,0.4-19.6,0.7-29.4,1c-6.3,0.2-12.6,0.6-18.9,0.7c-10.8,0.2-21.6-1.3-32.3-2.7
	c-6.9-0.9-13.9-1.5-20.8-2.3c-6.4-0.8-12.8-1.7-19.3-2.4c-7.6-0.9-15.2-2.1-22.8-2.4c-9.8-0.3-18.8,2.4-25.4,10.3
	c-0.4,0.5-0.9,0.8-1.8,1.6c-2.5-5.7-4.8-11.2-7.2-16.7c-7.3-17.2-16.3-33.5-27.8-48.3c-13.4-17.2-28.9-32.1-48.2-42.7
	c-13.1-7.2-27.2-11.6-42-13.3c-30.7-3.6-57.7,6-81.8,24.5c-21.7,16.6-38.2,37.5-50.7,61.6c-12.9,24.8-21.5,51-26.5,78.4
	c-3.6,20.2-5.6,40.5-4.8,61c0.3,7.8,0.8,15.6,1,23.4c0.1,8-2.9,11.2-10.8,13c-6.5,1.4-12.9,0.6-19.3-0.4
	c-11.6-1.8-23.3-3.7-34.9-5.7c-12.6-2.1-25.2-4.2-37.8-6.3c-10.6-1.8-21.2-3.7-31.8-5.6c-12.1-2.1-24.2-4.2-36.3-6.4
	c-14-2.5-28.1-5.1-42.1-7.7c-13.9-2.5-27.7-5.2-41.6-7.6c-12.7-2.2-25.5-4.2-38.3-6.4c-13.6-2.3-27.2-4.5-40.7-7.1
	c-10.1-2-18.5-6.8-22.7-16.7c-1.4-3.3-2.2-7-2.6-10.5c-1.2-12.9-1.8-25.9-3.1-38.7c-2.7-26.4-8-52.2-19-76.5
	c-8.4-18.6-19.1-35.8-34-50c-12.2-11.5-26.5-18.7-43.1-21.4c-19.2-3.1-36.7,1.2-52.8,11.6c-20.3,13-35,31-45.6,52.5
	c-7.9,16.2-12.9,33.4-16.5,51c-3,14.9-4.3,29.9-4,45.1c0.1,3.6-0.6,7.2-0.9,11c-4.3-0.8-8-1.5-11.8-2.1c-8.4-1.4-16.8-2.5-25.1-4
	c-8.9-1.6-17.4-4.2-25.1-9.1c-13.1-8.2-20.3-19.7-20.3-35.5c-0.2-44.5-0.5-89-0.7-133.4c-0.1-29.3-0.2-58.6-0.2-88
	c0-71,0.2-142,0.3-213C191,869.7,190.7,867.3,192.8,865z M735.2,782.5c0,42.8,0,85.7,0,128.5c0,3.3,0.2,6.7,0.8,9.9
	c2,10.1,8,20.2,21.5,22.7c5.1,0.9,10,0.2,14.8-1c13.9-3.2,27.8-6.7,41.7-9.9c45.8-10.6,91.5-21.2,137.3-31.8
	c6.6-1.5,12.5-4.7,16.9-10c6.1-7.4,7.2-15.9,5.2-25c-1.2-5.7-3-11.2-4.5-16.8c-7.5-29.1-14.8-58.2-22.3-87.3
	c-10.1-39.2-20.4-78.4-30.6-117.6c-4.2-16.1-8.4-32.1-12.8-48.1c-3.7-13.3-16.2-21.4-29.7-19.2c-4.2,0.7-8.4,2-12.4,3.5
	c-22,8.5-44,17.1-65.9,25.6c-13.8,5.4-27.6,10.7-41.3,16.2c-8.8,3.5-15.5,9.2-17.5,19c-0.8,3.9-1.1,7.9-1.1,11.9
	C735.2,696.2,735.2,739.4,735.2,782.5z M1260.7,1150.2c0,31.7,0,63.3,0,95c0,2.3,0.2,4.7,0.1,7c-0.1,5.1,4.2,10,8.7,10.8
	c3.9,0.6,7.9,1.2,11.9,1.2c18.5-0.2,36.9-0.6,55.4-0.9c12.7-0.2,25.3-0.1,38-0.3c8.1-0.1,16.3-0.4,24.4-0.9
	c7.3-0.5,11.1-4.5,11.7-11.8c0.2-2,0.2-4,0.2-6c0-62.8,0-125.6,0-188.5c0-2,0-4-0.2-6c-0.5-6.3-3.4-9.9-9.7-10.8
	c-5.4-0.8-10.9-0.8-16.4-1c-15.1-0.6-30.3-1.2-45.4-1.6c-18.1-0.5-36.3-0.9-54.4-1.2c-5-0.1-10-0.6-14.9,0.9
	c-4.3,1.3-7.5,3.9-8.3,8.4c-0.7,3.9-1.2,7.9-1.2,11.9C1260.7,1087.6,1260.7,1118.9,1260.7,1150.2z M1443.2,1061.1c1.5,0,2.5,0,3.5,0
	c27.5-0.3,54.9-0.5,82.4-0.8c22-0.3,43.9-0.6,65.9-1c17.3-0.3,34.6-0.7,51.9-1c8.8-0.2,17.7-0.1,26.5-0.3c6.8-0.2,13.5-0.5,20.5-0.8
	c0-5.4,0-10.4,0-15.7c-2.2-0.1-4.4-0.3-6.5-0.3c-44.3,0.2-88.6,0.4-132.9,0.7c-33.1,0.2-66.3,0.6-99.4,1c-3.9,0-7.9,0.2-11.9,0.4
	C1443.2,1049.2,1443.2,1054.9,1443.2,1061.1z M1693.8,1070.3c-1.8-0.1-3.1-0.3-4.4-0.3c-6.5-0.1-13-0.1-19.5-0.1
	c-41,0.3-81.9,0.5-122.9,0.8c-9.5,0.1-19,0.1-28.5,0.2c-24,0.3-47.9,0.7-71.9,1c-1.1,0-2.2,0.2-3.6,0.3c0,3.1,0,5.9,0,8.7
	c0,2.9,0,5.9,0,9.1c2.4,0,4.2,0,6,0c29.3-0.3,58.6-0.5,87.9-0.9c17.5-0.2,34.9-0.7,52.4-1c19-0.3,37.9-0.7,56.9-1
	c11.7-0.2,23.3-0.3,35-0.5c4.1-0.1,8.2-0.5,12.5-0.8C1693.8,1080.7,1693.8,1075.7,1693.8,1070.3z M1693.8,1098.9
	c-4.9,0-9.3,0-13.8,0c-46.8,0.3-93.6,0.6-140.4,0.8c-13.5,0.1-27,0-40.5,0.2c-17,0.2-33.9,0.5-50.9,0.9c-1.6,0-3.2,0.2-4.9,0.3
	c0,6.1,0,11.8,0,17.9c2.1,0,3.9,0,5.7,0c23.8-0.3,47.6-0.5,71.4-0.8c22-0.3,43.9-0.6,65.9-1c18.8-0.3,37.6-0.7,56.4-1
	c12.2-0.2,24.3-0.3,36.5-0.5c4.8-0.1,9.5-0.6,14.5-0.9C1693.8,1109.7,1693.8,1104.7,1693.8,1098.9z M1693.8,1127.9
	c-3.9,0-7.4,0-10.8,0c-50.1,0.3-100.3,0.6-150.4,0.8c-13.3,0.1-26.7,0-40,0.2c-15.3,0.2-30.6,0.5-45.9,0.8c-1.1,0-2.2,0.3-3.6,0.5
	c0,3.1,0,5.9,0,8.7c0.1,2.9-0.3,5.9,0.3,9.1c3.3,0,6.3,0,9.2,0c23-0.3,46-0.5,68.9-0.8c20.1-0.3,40.3-0.6,60.4-1
	c19-0.3,38-0.6,56.9-1c17-0.3,33.9-0.8,50.9-1.2c1.3,0,2.6-0.1,4-0.2C1693.8,1138.6,1693.8,1133.6,1693.8,1127.9z M1693.7,1173.1
	c0-5.8,0-10.8,0-16.2c-2.7,0-5.2,0-7.6,0c-59.5,0.3-118.9,0.5-178.4,0.8c-17.2,0.1-34.3,0.3-51.5,0.5c-4.3,0.1-8.5,0.5-12.9,0.8
	c0,6.1,0,11.8,0,17.9c1.9,0,3.5,0,5.2,0c21.5-0.2,43-0.5,64.4-0.7c22-0.3,44-0.6,65.9-1c18.8-0.3,37.6-0.6,56.4-1
	c17.3-0.3,34.6-0.8,51.9-1.1C1689.3,1173.1,1691.4,1173.1,1693.7,1173.1z M1443.3,1205.8c1.1,0.1,1.8,0.2,2.4,0.2
	c20-0.2,40-0.5,59.9-0.7c24-0.3,48-0.6,71.9-1c17.8-0.3,35.6-0.6,53.4-1c16.6-0.3,33.3-0.7,49.9-1c4.3-0.1,8.5-0.2,13-0.4
	c0-3,0.1-5.5,0-7.9c-0.1-2.6,0.5-5.3-0.5-7.8c-1-0.1-1.8-0.2-2.7-0.2c-18.7,0-37.3-0.1-56,0c-39.3,0.2-78.6,0.6-117.9,0.8
	c-17.2,0.1-34.3,0.1-51.5,0.3c-7.3,0.1-14.6,0.5-22.1,0.7C1443.3,1193.9,1443.3,1199.7,1443.3,1205.8z M1693.8,1215.1
	c-1.2-0.1-2-0.2-2.8-0.2c-24.3,0-48.6-0.1-73,0c-35.5,0.2-70.9,0.5-106.4,0.8c-16.5,0.1-33,0-49.5,0.3c-6.2,0.1-12.6-0.4-19.1,1.1
	c0,2.9,0,5.7,0,8.6c0,2.9,0.1,5.9,0.2,9.2c2.3,0,4.1,0,5.9,0c17.3-0.2,34.6-0.5,51.9-0.7c24-0.3,47.9-0.6,71.9-1
	c18.3-0.3,36.6-0.6,54.9-1c20-0.4,39.9-0.8,59.9-1.2c2,0,3.9-0.2,6-0.3C1693.8,1225.5,1693.8,1220.6,1693.8,1215.1z M1443.2,1264
	c3.2,0,5.9,0,8.5,0c14.8-0.2,29.6-0.5,44.4-0.7c24-0.4,47.9-0.6,71.9-1c19-0.3,37.9-0.6,56.9-1c17.5-0.3,34.9-0.7,52.4-1
	c5.4-0.1,10.9-0.3,16.2-0.4c0-5.6,0-10.6,0-16.1c-4,0-7.6,0-11.3,0c-37,0.1-74,0-110.9,0.2c-26.8,0.1-53.6,0.5-80.4,0.8
	c-10.5,0.1-21,0-31.5,0.3c-5.4,0.1-10.9-0.5-16.3,1C1443.2,1252,1443.2,1257.6,1443.2,1264z"/>
<path class="st0" d="M1815.7,1007c-4.8,0-9.5,0.1-14.3,0c-22.3-0.4-44.6-0.8-66.9-1.1c-22.5-0.4-44.9-0.7-67.4-1
	c-25.1-0.4-50.3-0.7-75.4-1c-24.6-0.3-49.3-0.7-73.9-1c-23.3-0.3-46.6-0.6-69.9-1c-20.3-0.3-40.6-0.6-60.9-1
	c-17.5-0.3-35-0.6-52.4-1c-15.3-0.3-30.6-0.7-45.9-1c-16.1-0.3-32.3-0.6-48.4-1c-4-0.1-8-0.1-11.9-1c-3.7-0.8-7.3-2.3-10.6-4.2
	c-23.4-13.7-46.6-27.7-70-41.5c-25.8-15.2-51.6-30.4-77.5-45.5c-5.9-3.4-9.3-8-10.9-14.6c-8-34.4-16.2-68.8-24.3-103.1
	c-6.4-27.1-13-54.2-19.5-81.3c-6.9-28.7-13.7-57.4-20.5-86.1c-6.5-27.6-13-55.2-19.5-82.8c-7.7-32.4-15.4-64.9-23.2-97.5
	c2-0.9,4.1-0.3,6.2,0.1c13.3,2.2,26.5,4.5,39.8,6.7c13.3,2.2,26.5,4.5,39.8,6.7c11.3,1.8,22.6,3.5,33.9,5.3
	c11,1.7,21.9,3.6,32.9,5.4c11.3,1.9,22.6,3.7,33.9,5.6c11.1,1.8,22.3,3.7,33.4,5.5c11.3,1.8,22.6,3.6,33.9,5.5
	c11.5,1.9,22.9,3.8,34.4,5.6c9,1.5,18,2.9,27,4.3c9,1.4,18,2.8,27,4.3c11.3,1.9,22.6,3.8,33.9,5.7c13.4,2.3,26.8,4.5,40.3,6.7
	c11.3,1.8,22.6,3.5,33.9,5.3c11.3,1.8,22.6,3.7,33.9,5.6c9,1.5,18,2.9,27,4.3c11,1.8,22,3.6,32.9,5.4c11,1.8,21.9,3.7,32.9,5.6
	c8.3,1.4,16.7,2.7,25.1,4.1c3.9,0.7,6.7,2.8,8,6.7c1.2,3.6,2.5,7.2,3.7,10.8c16.1,47.1,32.2,94.2,48.4,141.3
	c12.8,37.3,25.7,74.7,38.5,112c9.5,27.8,19,55.6,28.2,83.5c2.3,6.9,3.7,14.1,5.6,21.4c1.4,0.3,2.9,0.8,4.6,1
	c7,0.6,13.1,3.7,18.5,7.9c30,23.2,60,46.5,90,69.8c4.1,3.2,8.2,6.2,12.3,9.5c1.5,1.2,2.7,2.7,4,4.1
	C1816,1006.3,1815.9,1006.6,1815.7,1007z M1230.3,886.1c37.8,0,75.7,0,113.5,0c4,0,8,0.1,12,0c11.6-0.5,22.9-9.4,25.7-20.4
	c1.6-6.3,0.8-12.5-1-18.7c-11.4-38.7-22.8-77.4-34.1-116.1c-11.5-39.7-22.9-79.5-34.4-119.2c-2.1-7.3-4.4-14.6-6.9-21.8
	c-3.1-8.8-9.4-14-18.5-15.7c-5.9-1.1-11.9-1.5-17.8-2.1c-7.9-0.8-15.9-1.5-23.8-2.3c-8.9-0.9-17.9-1.8-26.8-2.8
	c-7.4-0.8-14.9-1.5-22.3-2.3c-7.9-0.9-15.9-1.8-23.8-2.7c-7.3-0.8-14.5-1.6-21.8-2.5c-10.1-1.2-20.2-2.3-30.2-3.5
	c-9.9-1.1-19.8-2.3-29.7-3.4c-7.9-0.9-15.9-1.8-23.8-2.6c-8.9-0.9-17.9-1.7-26.8-2.7c-3.6-0.4-6.9,0.1-10.2,1.5
	c-6.8,3-11.8,8-15.3,14.5c-2.7,5-3.3,10.3-2,15.9c3.7,15.7,7.3,31.4,10.9,47.1c6.8,29.8,13.6,59.6,20.4,89.4
	c7.5,32.9,15.1,65.7,22.6,98.6c3.7,16.4,7.3,32.7,11,49.1c2.4,10.8,8.7,18.3,19.5,21.3c4.3,1.2,8.9,1.5,13.3,1.5
	C1149.9,886.1,1190.1,886.1,1230.3,886.1z M1582.4,884.3c0,0.2,0,0.5,0,0.7c10.3-0.3,20.6-0.4,30.9-0.9c12.9-0.6,25-12.6,24.7-26
	c-0.1-5.1-1.1-9.9-2.6-14.7c-3-9.1-6.2-18.2-9.3-27.4c-17.8-52.9-35.7-105.7-53.5-158.6c-4-11.9-7.8-24-11.8-35.9
	c-4-12.1-12.1-19.8-24.9-21.7c-11-1.6-22.1-2.6-33.2-3.9c-10.1-1.1-20.2-2.2-30.2-3.5c-9.6-1.1-19.1-2.4-28.7-3.6
	c-9.4-1.2-18.8-2.4-28.2-3.5c-9.6-1.2-19.1-2.4-28.7-3.5c-8.4-0.9-16.9-1.6-25.3-2.5c-13-1.5-25,6.3-28.7,18.9
	c-1.9,6.5-1.3,12.9,0.6,19.2c3.1,10.3,6.3,20.6,9.4,31c7.6,26,15.1,52,22.8,77.9c11.4,38.3,23,76.6,34.5,115
	c2.2,7.5,4.4,15,6.8,22.4c3.2,10.4,9.9,17.1,20.7,19.5c5.7,1.3,11.5,1.8,17.3,1.4c2.2-0.1,4.3-0.4,6.5-0.4
	C1495.1,884.3,1538.8,884.3,1582.4,884.3z"/>
<path class="st0" d="M1141,1399.2c0-14.5-0.3-29,0.1-43.5c0.3-14,15.5-32.1,35.4-28.2c8.8,1.7,17.8,2.4,26.7,3.5
	c5.9,0.8,11.8,1.6,17.8,2.3c8.9,1,17.8,2,26.8,2.6c8.8,0.6,17.6,1,26.4,0.9c6.8-0.1,13.6-1,20.4-1.5c0.8-0.1,1.7-0.2,2.5-0.3
	c11-0.4,21.9-0.8,32.9-1.1c13.1-0.4,26.3-0.8,39.4-1.3c8.6-0.3,17.3-0.6,25.9-1c16.5-0.7,32.9-1.3,49.4-2c14.9-0.6,29.9-1.3,44.8-2
	c15.1-0.7,30.2-1.3,45.4-2c15.6-0.7,31.2-1.3,46.8-2c15.8-0.7,31.6-1.3,47.3-2c15.6-0.7,31.2-1.3,46.9-2c15.4-0.7,30.9-1.3,46.3-2
	c15.3-0.7,30.6-1.3,45.8-2c15.1-0.7,30.2-1.4,45.4-2c9.8-0.4,19.6-0.7,29.4-1.1c11.6-0.5,23.2-1.3,34.9-1.6c6.1-0.2,11.7,2,16.7,5.7
	c6.2,4.5,9.8,10.8,11.5,18.1c0.8,3.5,1.1,7.2,1.1,10.9c0.1,16.3,0.3,32.7,0,49c-0.3,15.8-10.5,28.6-24.7,32.7
	c-2.5,0.7-5.2,1.2-7.8,1.5c-4.5,0.5-8.9,0.6-13.4,1c-12.4,1-24.8,2-37.3,3c-9.9,0.8-19.9,1.4-29.8,2.2c-10.1,0.8-20.2,1.9-30.3,2.7
	c-5.8,0.5-11.6,0.8-17.4,1.2c-6.5,0.5-12.9,1.2-19.4,1.7c-4.8,0.4-9.6,0.8-14.4,1.1c-10.6,0.7-21.2,1.4-31.8,2.2
	c-10.8,0.8-21.5,1.9-32.3,2.8c-6.5,0.5-12.9,0.7-19.4,1.2c-6.3,0.5-12.6,1.2-18.9,1.7c-4.6,0.4-9.3,0.8-13.9,1.1
	c-6.1,0.4-12.3,0.7-18.4,1.2c-6.1,0.5-12.2,1.1-18.4,1.6c-4.8,0.4-9.6,0.9-14.4,1.2c-10.6,0.8-21.2,1.4-31.8,2.2
	c-10.8,0.8-21.5,1.9-32.3,2.7c-6.1,0.5-12.3,0.8-18.4,1.2c-7,0.5-13.9,1.1-20.9,1.7c-4.8,0.4-9.6,0.8-14.4,1.1
	c-10.4,0.7-20.9,1.4-31.3,2.2c-10.1,0.8-20.2,1.9-30.3,2.7c-5.8,0.5-11.6,0.8-17.4,1.2c-6.3,0.5-12.6,1.1-18.9,1.7
	c-4.5,0.4-8.9,0.8-13.4,1.2c-10.1,0.8-20.2,1.4-30.3,2.2c-6.6,0.5-13.2,1.4-19.9,1.7c-9.3,0.3-18.6,0.8-27.9-0.4
	c-8.6-1.1-17.2-1.5-25.8-2.3c-8.8-0.8-17.5-1.7-26.3-2.6c-5.1-0.5-10.3-1-15.4-1.4c-15.2-1.2-25.6-10.9-28.3-21.5
	c-0.7-2.9-1-5.9-1-8.9c-0.1-13.5,0-27,0-40.5C1140.8,1399.2,1140.9,1399.2,1141,1399.2z"/>
<path class="st0" d="M94.1,807.5c2.7-1.6,4.4-2.6,6.1-3.5c26.6-14,53.2-28.1,79.8-42.1c35.3-18.6,70.5-37.3,105.8-55.9
	c46.2-24.3,92.4-48.6,138.6-72.9c7.2-3.8,14.4-7.6,21.5-11.6c5.2-3,10.2-3.1,15.7-0.6c29.3,13.3,58.7,26.5,88.1,39.7
	c16.3,7.4,32.7,14.7,49.1,22c22.1,9.8,44.3,19.6,66.5,29.4c1.2,0.5,2.3,1.2,4.2,2.3c-3.7,1.6-6.7,3.2-9.8,4.3
	c-35.7,12.6-71.3,25.3-107.1,37.6c-30,10.4-60.1,20.2-90.1,30.5c-34.5,12-68.8,24.3-103.2,36.4c-29.3,10.3-58.6,20.4-87.9,30.7
	c-6.2,2.2-12.1,2.3-18.5,0.5c-46.4-13.8-92.9-27.3-139.4-40.9C107.4,811.8,101.3,809.8,94.1,807.5z"/>
<path class="st0" d="M1063.1,1390.9c0.2,31.6-5.8,59-17.1,85.2c-5.6,13-13.8,23.9-25.7,31.8c-4.4,2.9-9.2,5.2-14.5,6.3
	c-6.3,1.4-12.2,0.4-18-2c-11.3-4.7-19.6-12.9-26.3-22.9c-8.4-12.6-13.9-26.4-17.6-41c-3.5-13.9-5.8-27.9-6.1-42.3
	c-0.2-7-1.1-14-0.8-20.9c1.1-26.3,6.3-51.7,17.7-75.5c5.5-11.6,13.1-21.5,23.4-29.4c12.7-9.7,29.2-10.2,42.3-1.1
	c11.3,7.9,19.6,18.5,25.2,31c6.8,15.2,11.3,31.1,14.3,47.5C1062.2,1369.6,1063.4,1381.7,1063.1,1390.9z M1025.4,1394.6
	c-0.4-5.5-0.9-10.9-1.3-16.4c-0.6-9.4-3.2-18.3-7.2-26.8c-2-4.2-4.3-8.3-7.8-11.5c-5.8-5.2-12.1-5.2-17.8,0c-4.3,3.9-7.1,8.8-9.4,14
	c-4.4,9.7-6,20-7,30.4c-0.3,3.3-1.2,6.7-0.7,9.9c1.4,10.2,3.2,20.3,5.1,30.4c1.6,8.5,6.1,15.7,11.7,22.2c3.1,3.6,7.1,5.4,11.6,3.9
	c2.7-0.9,5.5-2.6,7.3-4.8c2.8-3.2,5.2-7,7-10.8C1023.2,1422.4,1025.4,1408.7,1025.4,1394.6z"/>
<path class="st0" d="M429.4,1343.2c-0.1,21.2-4.9,41.2-13.8,60.3c-3.6,7.6-8.8,14.1-14.9,19.9c-10.2,9.6-26.2,9.1-36.2-0.4
	c-8.6-8-14.6-17.7-18.5-28.7c-4.3-11.9-7.3-24.1-8.3-36.8c-1.4-19-0.8-37.9,4.4-56.4c3.5-12.2,8.7-23.7,16.5-33.9
	c4.3-5.7,9.5-10.3,16.5-12.3c10.6-2.9,19.7,0.5,27.7,7.3c8.6,7.4,13.8,17,17.2,27.6c4,12.3,7.2,24.8,8.2,37.8
	C428.5,1332.9,429,1338.1,429.4,1343.2z M364.6,1341.8c0,6.6,0.8,13,2.4,19.4c1.7,7,4.7,13.5,9.7,18.9c4,4.3,8.1,4.3,12,0
	c3.9-4.2,7.2-8.8,8.5-14.5c1.2-5.2,2.5-10.3,3.2-15.6c1.6-12.4-0.6-24.5-4.6-36.3c-1.4-4.1-4.1-7.6-7.6-10.3
	c-4.2-3.2-8.3-2.8-12.1,1c-1,1.1-2,2.3-2.7,3.5c-2.9,4.7-5.4,9.7-6.3,15.1C365.9,1329.2,365.4,1335.5,364.6,1341.8z"/>
<path class="st0" d="M661,1006c-5.1,1-9.9,2-14.8,3c-16.9,3.3-33.9,6.5-50.8,9.7c-16.5,3.1-32.9,6.2-49.4,9.3c-15,2.8-30,5.6-45,8.5
	c-13.4,2.5-26.7,5-40.1,7.5c-17.1,3.2-34.2,6.4-51.3,9.6c-13.2,2.5-26.4,4.9-39.6,7.4c-15.2,2.8-30.3,5.7-45.5,8.6
	c-15,2.8-30,5.6-45,8.5c-8,1.5-16,3.4-24.2,2.7c-7.6-0.6-15.3-1-22.7-2.8c-0.7-0.2-1.4-0.6-3.2-1.5c13.8-3.6,26.3-7.1,39-10.1
	c22.4-5.4,45-10.3,67.4-15.6c37.7-9,75.4-18.2,113.1-27.4c21.9-5.3,43.8-10.7,65.8-15.9c11.9-2.8,23.9-5.6,35.9-8.1
	c7.5-1.5,15.2-1.9,22.8-0.8c1.5,0.2,3,0.3,4.5,0.4c9.8,0.4,19.6,0.7,29.4,1.2c8.5,0.4,16.9,1.2,25.4,1.7c8.3,0.5,16.6,0.9,24.9,1.3
	C659,1003.1,661.1,1002.6,661,1006z"/>
<path class="st0" d="M1823.1,1219.6c-22.4,0.7-44.9,1.5-67.4,2.2c-0.3-0.8-0.7-1.2-0.7-1.7c-0.4-11.3-0.9-22.6-1-33.9
	c-0.2-27-0.3-53.9-0.3-80.9c0-10.5,0.2-21,0.4-31.5c0-2.1,0.5-4.2,0.7-6.7c23,0.8,45.7,1.7,68.2,2.5
	C1824.1,1074.3,1824.1,1215.1,1823.1,1219.6z M1763.2,1167.2c0.1,11.7,2,21.5,5.9,29.8c2.5,5.3,5.7,10.1,10.7,13.6
	c6.8,4.7,14.1,4.5,20.8-0.4c4-2.9,6.8-6.8,9.1-11.1c4.1-7.8,5.9-16.1,6.6-24.8c0.9-10.8-0.5-21.2-4.3-31.3
	c-2.4-6.4-5.9-12.3-11.7-16.4c-6.2-4.5-13.1-4.7-19.6-0.7c-3.6,2.2-6.4,5.3-8.6,8.9C1765.5,1145,1763.6,1156.5,1763.2,1167.2z
	 M1787.7,1084.9C1787.7,1084.9,1787.7,1084.9,1787.7,1084.9c-1,0-2,0-3,0c-4.3,0-8.7-0.1-13,0.1c-4.5,0.2-7.5,3.4-7.8,7.6
	c-0.3,4.2,2.3,7.7,6.6,8.6c1.6,0.3,3.3,0.5,4.9,0.5c8,0.1,16,0.1,24,0c1.8,0,3.7-0.2,5.4-0.6c4.2-1,6.6-4.8,6.1-9
	c-0.5-4.1-3.8-7-8.3-7.1C1797.7,1084.8,1792.7,1084.9,1787.7,1084.9z"/>
<path d="M735.2,782.5c0-43.2,0-86.3,0-129.5c0-4,0.3-8,1.1-11.9c2-9.7,8.7-15.4,17.5-19c13.7-5.5,27.5-10.8,41.3-16.2
	c22-8.6,43.9-17.2,65.9-25.6c4-1.5,8.2-2.8,12.4-3.5c13.5-2.3,26.1,5.9,29.7,19.2c4.4,16,8.6,32.1,12.8,48.1
	c10.2,39.2,20.5,78.4,30.6,117.6c7.5,29.1,14.9,58.2,22.3,87.3c1.4,5.6,3.2,11.2,4.5,16.8c1.9,9,0.9,17.6-5.2,25
	c-4.4,5.4-10.3,8.5-16.9,10c-45.8,10.7-91.5,21.2-137.3,31.8c-13.9,3.2-27.8,6.7-41.7,9.9c-4.9,1.1-9.8,1.9-14.8,1
	c-13.5-2.5-19.6-12.6-21.5-22.7c-0.6-3.2-0.8-6.6-0.8-9.9C735.2,868.2,735.2,825.3,735.2,782.5z"/>
<path d="M1260.7,1150.2c0-31.3,0-62.7,0.1-94c0-4,0.4-8,1.2-11.9c0.8-4.5,4-7.1,8.3-8.4c4.9-1.5,9.9-1,14.9-0.9
	c18.1,0.3,36.3,0.7,54.4,1.2c15.1,0.4,30.3,1,45.4,1.6c5.5,0.2,11,0.2,16.4,1c6.2,0.9,9.2,4.6,9.7,10.8c0.2,2,0.2,4,0.2,6
	c0,62.8,0,125.6,0,188.5c0,2,0,4-0.2,6c-0.6,7.3-4.3,11.3-11.7,11.8c-8.1,0.6-16.3,0.8-24.4,0.9c-12.7,0.2-25.3,0.1-38,0.3
	c-18.5,0.3-36.9,0.7-55.4,0.9c-4,0-7.9-0.6-11.9-1.2c-4.5-0.7-8.9-5.6-8.7-10.8c0.1-2.3-0.1-4.7-0.1-7
	C1260.7,1213.6,1260.7,1181.9,1260.7,1150.2z M1297,1062.1c-0.3,11.9-1,23.2-0.9,34.5c0.1,37.1,0.4,74.2,0.7,111.4
	c0.1,7.2,0.2,14.3,0.4,21.5c0.1,2.8,0.7,5.5,1,8.3c25.8-0.7,51.2-1.3,76.5-1.9c0.2-0.9,0.5-1.4,0.5-1.8c0-55.6,0-111.3,0-166.9
	c0-0.7-0.1-1.3-0.2-2c0-0.1-0.2-0.3-0.3-0.4c-0.1-0.1-0.3-0.2-0.4-0.4C1348.8,1063.5,1323.3,1062.8,1297,1062.1z"/>
<path d="M1443.2,1061.1c0-6.2,0-11.8,0-18c4-0.1,7.9-0.3,11.9-0.4c33.1-0.4,66.3-0.8,99.4-1c44.3-0.3,88.6-0.5,132.9-0.7
	c2.1,0,4.2,0.2,6.5,0.3c0,5.4,0,10.3,0,15.7c-6.9,0.3-13.7,0.7-20.5,0.8c-8.8,0.2-17.7,0.1-26.5,0.3c-17.3,0.3-34.6,0.7-51.9,1
	c-22,0.4-43.9,0.7-65.9,1c-27.5,0.3-54.9,0.6-82.4,0.8C1445.7,1061.1,1444.7,1061.1,1443.2,1061.1z"/>
<path d="M1693.8,1070.3c0,5.4,0,10.3,0,15.6c-4.3,0.3-8.4,0.7-12.5,0.8c-11.7,0.3-23.3,0.3-35,0.5c-19,0.3-37.9,0.7-56.9,1
	c-17.5,0.3-34.9,0.8-52.4,1c-29.3,0.4-58.6,0.6-87.9,0.9c-1.8,0-3.6,0-6,0c0-3.2,0-6.1,0-9.1c0-2.8,0-5.6,0-8.7
	c1.4-0.1,2.5-0.3,3.6-0.3c24-0.3,47.9-0.7,71.9-1c9.5-0.1,19-0.1,28.5-0.2c41-0.3,81.9-0.6,122.9-0.8c6.5,0,13,0,19.5,0.1
	C1690.6,1070,1691.9,1070.2,1693.8,1070.3z"/>
<path d="M1693.8,1098.9c0,5.8,0,10.7,0,15.9c-5,0.3-9.7,0.8-14.5,0.9c-12.2,0.3-24.3,0.3-36.5,0.5c-18.8,0.3-37.6,0.7-56.4,1
	c-22,0.4-43.9,0.7-65.9,1c-23.8,0.3-47.6,0.6-71.4,0.8c-1.8,0-3.6,0-5.7,0c0-6.1,0-11.8,0-17.9c1.6-0.1,3.2-0.3,4.9-0.3
	c17-0.3,33.9-0.7,50.9-0.9c13.5-0.2,27-0.1,40.5-0.2c46.8-0.3,93.6-0.6,140.4-0.8C1684.4,1098.9,1688.9,1098.9,1693.8,1098.9z"/>
<path d="M1693.8,1127.9c0,5.7,0,10.6,0,15.9c-1.4,0.1-2.7,0.2-4,0.2c-17,0.4-33.9,0.8-50.9,1.2c-19,0.4-38,0.7-56.9,1
	c-20.1,0.3-40.3,0.7-60.4,1c-23,0.3-46,0.6-68.9,0.8c-3,0-6,0-9.2,0c-0.6-3.2-0.3-6.2-0.3-9.1c-0.1-2.8,0-5.6,0-8.7
	c1.4-0.2,2.5-0.4,3.6-0.5c15.3-0.3,30.6-0.7,45.9-0.8c13.3-0.2,26.7-0.1,40-0.2c50.1-0.3,100.3-0.6,150.4-0.8
	C1686.4,1127.9,1689.9,1127.9,1693.8,1127.9z"/>
<path d="M1693.7,1173.1c-2.3,0-4.4,0-6.6,0c-17.3,0.4-34.6,0.8-51.9,1.1c-18.8,0.4-37.6,0.7-56.4,1c-22,0.4-44,0.7-65.9,1
	c-21.5,0.3-43,0.5-64.4,0.7c-1.6,0-3.3,0-5.2,0c0-6.1,0-11.8,0-17.9c4.4-0.3,8.6-0.7,12.9-0.8c17.2-0.2,34.3-0.4,51.5-0.5
	c59.5-0.3,118.9-0.6,178.4-0.8c2.5,0,4.9,0,7.6,0C1693.7,1162.3,1693.7,1167.3,1693.7,1173.1z"/>
<path d="M1443.3,1205.8c0-6.2,0-11.9,0-18c7.5-0.3,14.8-0.7,22.1-0.7c17.2-0.2,34.3-0.2,51.5-0.3c39.3-0.3,78.6-0.6,117.9-0.8
	c18.7-0.1,37.3,0,56,0c0.8,0,1.6,0.1,2.7,0.2c1,2.6,0.4,5.2,0.5,7.8c0.1,2.5,0,5,0,7.9c-4.5,0.1-8.8,0.3-13,0.4
	c-16.6,0.3-33.3,0.7-49.9,1c-17.8,0.3-35.6,0.7-53.4,1c-24,0.4-48,0.7-71.9,1c-20,0.3-40,0.5-59.9,0.7
	C1445.1,1206,1444.4,1205.9,1443.3,1205.8z"/>
<path d="M1693.8,1215.1c0,5.5,0,10.4,0,15.7c-2.1,0.1-4.1,0.2-6,0.3c-20,0.4-39.9,0.8-59.9,1.2c-18.3,0.3-36.6,0.7-54.9,1
	c-24,0.4-47.9,0.7-71.9,1c-17.3,0.2-34.6,0.5-51.9,0.7c-1.8,0-3.6,0-5.9,0c-0.1-3.3-0.1-6.3-0.2-9.2c0-2.8,0-5.6,0-8.6
	c6.5-1.6,12.9-1,19.1-1.1c16.5-0.3,33-0.2,49.5-0.3c35.5-0.3,70.9-0.6,106.4-0.8c24.3-0.1,48.6,0,73,0
	C1691.8,1214.9,1692.6,1215,1693.8,1215.1z"/>
<path d="M1443.2,1264c0-6.4,0-12,0-17.9c5.4-1.5,10.9-0.8,16.3-1c10.5-0.3,21-0.2,31.5-0.3c26.8-0.3,53.6-0.7,80.4-0.8
	c37-0.2,74-0.1,110.9-0.2c3.6,0,7.3,0,11.3,0c0,5.5,0,10.5,0,16.1c-5.4,0.1-10.8,0.3-16.2,0.4c-17.5,0.3-34.9,0.7-52.4,1
	c-19,0.3-37.9,0.7-56.9,1c-24,0.4-47.9,0.7-71.9,1c-14.8,0.2-29.6,0.5-44.4,0.7C1449.1,1264,1446.5,1264,1443.2,1264z"/>
<path d="M1230.3,886.1c-40.2,0-80.3,0-120.5-0.1c-4.4,0-9.1-0.4-13.3-1.5c-10.8-3-17.1-10.4-19.5-21.3c-3.7-16.4-7.3-32.7-11-49.1
	c-7.5-32.9-15.1-65.7-22.6-98.6c-6.8-29.8-13.6-59.6-20.4-89.4c-3.6-15.7-7.2-31.4-10.9-47.1c-1.3-5.6-0.7-10.9,2-15.9
	c3.5-6.5,8.5-11.5,15.3-14.5c3.3-1.4,6.6-1.9,10.2-1.5c8.9,1,17.9,1.8,26.8,2.7c7.9,0.8,15.9,1.7,23.8,2.6
	c9.9,1.1,19.8,2.3,29.7,3.4c10.1,1.2,20.2,2.3,30.2,3.5c7.3,0.8,14.5,1.7,21.8,2.5c7.9,0.9,15.9,1.8,23.8,2.7
	c7.4,0.8,14.9,1.5,22.3,2.3c8.9,0.9,17.9,1.9,26.8,2.8c7.9,0.8,15.9,1.5,23.8,2.3c6,0.6,11.9,1.1,17.8,2.1c9,1.7,15.4,6.9,18.5,15.7
	c2.5,7.2,4.8,14.5,6.9,21.8c11.5,39.7,22.8,79.5,34.4,119.2c11.3,38.7,22.7,77.4,34.1,116.1c1.8,6.2,2.6,12.4,1,18.7
	c-2.8,11-14.1,19.9-25.7,20.4c-4,0.2-8,0-12,0C1305.9,886.1,1268.1,886.1,1230.3,886.1z"/>
<path d="M1582.4,884.3c-43.6,0-87.3,0-130.9,0c-2.2,0-4.3,0.2-6.5,0.4c-5.8,0.4-11.6-0.1-17.3-1.4c-10.7-2.4-17.4-9.2-20.7-19.5
	c-2.3-7.5-4.5-14.9-6.8-22.4c-11.5-38.3-23.1-76.6-34.5-115c-7.7-25.9-15.2-52-22.8-77.9c-3-10.4-6.3-20.6-9.4-31
	c-1.9-6.3-2.5-12.7-0.6-19.2c3.7-12.6,15.7-20.4,28.7-18.9c8.4,1,16.9,1.6,25.3,2.5c9.6,1.1,19.2,2.3,28.7,3.5
	c9.4,1.2,18.8,2.3,28.2,3.5c9.6,1.2,19.1,2.5,28.7,3.6c10.1,1.2,20.2,2.3,30.2,3.5c11.1,1.3,22.2,2.2,33.2,3.9
	c12.8,1.9,20.9,9.6,24.9,21.7c4,12,7.8,24,11.8,35.9c17.8,52.9,35.6,105.7,53.5,158.6c3.1,9.1,6.2,18.2,9.3,27.4
	c1.6,4.7,2.5,9.6,2.6,14.7c0.2,13.4-11.8,25.4-24.7,26c-10.3,0.5-20.6,0.6-30.9,0.9C1582.4,884.7,1582.4,884.5,1582.4,884.3z"/>
<path d="M1025.4,1394.6c0,14.2-2.2,27.9-8.4,40.7c-1.9,3.9-4.2,7.6-7,10.8c-1.8,2.1-4.6,3.9-7.3,4.8c-4.5,1.4-8.5-0.4-11.6-3.9
	c-5.6-6.5-10.1-13.7-11.7-22.2c-1.9-10.1-3.7-20.3-5.1-30.4c-0.4-3.2,0.4-6.6,0.7-9.9c1-10.5,2.6-20.8,7-30.4
	c2.3-5.2,5.1-10.1,9.4-14c5.7-5.2,12-5.3,17.8,0c3.5,3.2,5.8,7.3,7.8,11.5c4,8.5,6.6,17.4,7.2,26.8
	C1024.5,1383.6,1025,1389.1,1025.4,1394.6z"/>
<path d="M364.6,1341.8c0.8-6.2,1.3-12.5,2.4-18.7c1-5.4,3.4-10.4,6.3-15.1c0.8-1.3,1.7-2.5,2.7-3.5c3.7-3.8,7.8-4.1,12.1-1
	c3.6,2.7,6.3,6.2,7.6,10.3c4,11.7,6.2,23.8,4.6,36.3c-0.7,5.2-2,10.4-3.2,15.6c-1.3,5.7-4.6,10.3-8.5,14.5c-4,4.2-8,4.2-12,0
	c-5-5.3-7.9-11.9-9.7-18.9C365.5,1354.8,364.6,1348.4,364.6,1341.8z"/>
<path d="M1763.2,1167.2c0.4-10.6,2.3-22.2,8.9-32.5c2.3-3.5,5-6.6,8.6-8.9c6.5-4,13.4-3.7,19.6,0.7c5.8,4.2,9.2,10,11.7,16.4
	c3.8,10.1,5.3,20.5,4.3,31.3c-0.8,8.7-2.5,17.1-6.6,24.8c-2.3,4.3-5,8.2-9.1,11.1c-6.7,4.9-14,5.1-20.8,0.4
	c-4.9-3.4-8.2-8.2-10.7-13.6C1765.3,1188.7,1763.4,1178.9,1763.2,1167.2z M1802.2,1195.6c12.9-13.2,11.1-38.6-0.6-56
	c2.3,10.1,4.6,19,4.6,28.4C1806.3,1177.4,1805.3,1186.6,1802.2,1195.6z"/>
<path d="M1787.7,1084.9c5,0,10-0.1,15,0c4.5,0.1,7.8,3,8.3,7.1c0.6,4.2-1.9,8-6.1,9c-1.8,0.4-3.6,0.6-5.4,0.6c-8,0.1-16,0.1-24,0
	c-1.7,0-3.3-0.2-4.9-0.5c-4.3-0.9-6.9-4.4-6.6-8.6c0.3-4.2,3.3-7.4,7.8-7.6c4.3-0.2,8.7-0.1,13-0.1
	C1785.7,1084.9,1786.7,1084.9,1787.7,1084.9C1787.7,1084.9,1787.7,1084.9,1787.7,1084.9z"/>
<path class="st0" d="M1297,1062.1c26.3,0.7,51.8,1.5,77.3,2.2c0.2,0.2,0.3,0.3,0.4,0.4c0.1,0.1,0.2,0.3,0.3,0.4
	c0.1,0.7,0.2,1.3,0.2,2c0,55.6,0,111.3,0,166.9c0,0.5-0.2,0.9-0.5,1.8c-25.3,0.6-50.6,1.3-76.5,1.9c-0.4-2.8-0.9-5.5-1-8.3
	c-0.3-7.2-0.4-14.3-0.4-21.5c-0.3-37.1-0.6-74.2-0.7-111.4C1296,1085.3,1296.7,1074,1297,1062.1z M1365.8,1175.3
	c-0.1-9.2-1.1-17.6-3.9-25.7c-2.7-8.1-6.5-15.7-13.5-21.1c-8-6.2-16.7-6.2-24.8,0c-6.2,4.7-9.9,11.2-12.5,18.3
	c-6.4,17.6-6.5,35.5-0.8,53.3c2.2,6.7,5.4,12.9,10.4,18c9.1,9.3,20.8,9.4,30,0.3c4-3.9,6.9-8.6,9.1-13.6
	C1364.1,1195.1,1365.6,1185,1365.8,1175.3z M1337.2,1081.2c-5.3,0-10.6,0-15.9,0c-1.3,0-2.7,0-4,0.3c-5.5,1-8.5,4.6-8.5,9.9
	c0,5.6,2.8,8.8,8.5,9.9c1.5,0.3,3,0.4,4.4,0.4c10.3,0,20.6,0,30.9,0c1.8,0,3.7-0.2,5.4-0.6c4.5-1,7.5-4.6,7.7-9.1
	c0.2-4.7-2.6-8.8-7.2-10.1c-1.7-0.5-3.6-0.6-5.4-0.7C1347.8,1081.2,1342.5,1081.2,1337.2,1081.2z"/>
<path class="st0" d="M1802.2,1195.6c3.1-9,4.1-18.2,4.1-27.6c-0.1-9.3-2.3-18.3-4.6-28.4C1813.3,1157,1815.1,1182.4,1802.2,1195.6z"
	/>
<path d="M1365.8,1175.3c-0.2,9.7-1.7,19.8-5.9,29.4c-2.2,5.1-5.1,9.7-9.1,13.6c-9.3,9.1-20.9,9-30-0.3c-5-5.1-8.3-11.3-10.4-18
	c-5.7-17.8-5.6-35.7,0.8-53.3c2.6-7.1,6.3-13.6,12.5-18.3c8-6.2,16.8-6.2,24.8,0c7,5.4,10.8,13,13.5,21.1
	C1364.7,1157.7,1365.7,1166.1,1365.8,1175.3z M1349.8,1205.7c1-1.3,2.1-2.6,2.9-4c6.2-9.8,8.3-20.5,6.7-32
	c-1.4-9.7-4.7-18.7-10.1-27C1355.1,1163.6,1357,1184.5,1349.8,1205.7z"/>
<path d="M1337.2,1081.2c5.3,0,10.6-0.1,15.9,0c1.8,0,3.7,0.2,5.4,0.7c4.6,1.2,7.5,5.4,7.2,10.1c-0.2,4.6-3.2,8.2-7.7,9.1
	c-1.8,0.4-3.6,0.6-5.4,0.6c-10.3,0.1-20.6,0-30.9,0c-1.5,0-3-0.2-4.4-0.4c-5.7-1.1-8.5-4.3-8.5-9.9c0-5.4,3-8.9,8.5-9.9
	c1.3-0.2,2.6-0.2,4-0.3C1326.5,1081.2,1331.9,1081.2,1337.2,1081.2z"/>
<path class="st0" d="M1349.8,1205.7c7.2-21.2,5.3-42.1-0.5-63c5.4,8.3,8.7,17.3,10.1,27c1.6,11.5-0.4,22.2-6.7,32
	C1351.8,1203.1,1350.8,1204.4,1349.8,1205.7z"/>
</svg>
